<svg id="error" xmlns="http://www.w3.org/2000/svg" width="3in" height="3in" viewBox="0 0 216 216"><title>error</title><circle cx="110.1" cy="104.1" r="89.8" fill="#ed1c24"/><path d="M121.4,162.2a11.4,11.4,0,0,1-3.9,8.7,12.9,12.9,0,0,1-9,3.6,11.8,11.8,0,0,1-8.6-3.6,11.9,11.9,0,0,1,.1-17.2,13.1,13.1,0,0,1,9.2-3.4,12,12,0,0,1,8.7,3.4A11.4,11.4,0,0,1,121.4,162.2Zm-.7-110.1q0,3.8-1.8,23.1L113.8,131q-.5,4.8-4.5,4.8t-4.6-4.8L98.8,75.1Q97,57.7,97,52.7q0-17.4,12.5-17.4,6.2,0,9.2,6.2A22.6,22.6,0,0,1,120.8,52.1Z" fill="#fff"/></svg>