<svg id="error-2" xmlns="http://www.w3.org/2000/svg" width="6in" height="6in" viewBox="0 0 432 432"><title>error-2</title><circle cx="220.3" cy="214.3" r="183.2" fill="#fff"/><path d="M243.4,332.8a23.3,23.3,0,0,1-7.9,17.7,26.3,26.3,0,0,1-18.5,7.4,24.1,24.1,0,0,1-17.5-7.3,23.2,23.2,0,0,1-7.4-17q0-11.1,7.7-18.1a26.8,26.8,0,0,1,18.7-7,24.4,24.4,0,0,1,17.7,7A23.2,23.2,0,0,1,243.4,332.8ZM242,108.1q0,7.8-3.6,47.1l-10.7,114q-1,9.8-9.2,9.8t-9.4-9.8l-12.1-114q-3.6-35.6-3.6-45.7,0-35.6,25.4-35.6,12.6,0,18.7,12.6Q242.2,95.6,242,108.1Z" fill="#ed1c24"/></svg>