<svg xmlns="http://www.w3.org/2000/svg"><symbol id="arrow-icon" viewBox="0 0 144 144"><path d="M33.7 102.9L27 96.2 73.1 50l46.1 46.1-6.6 6.6-39.4-39.3z"/></symbol><symbol id="toggle-icon" viewBox="0 0 144 144"><path fill="#f1f2f2" d="M20 22h103.5v15.5H20zm0 36.2h103.5v15.6H20zm0 36.2h103.5V110H20z"/></symbol><symbol id="facebook-icon" viewBox="0 0 576 576"><path fill="#fff" d="M434.6 174.8v231.1a14.3 14.3 0 0 1-14.3 14.3H354V319.7h33.8l5-39.2H354v-25c0-11.4 3.2-19.1 19.4-19.1h20.8v-35.1a274 274 0 0 0-30.3-1.6c-29.9 0-50.4 18.3-50.4 51.8v28.9h-33.8v39.2h33.9v100.7H189.1a14.3 14.3 0 0 1-14.3-14.3V174.8a14.3 14.3 0 0 1 14.3-14.3h231.1a14.3 14.3 0 0 1 14.4 14.3z"/></symbol><symbol id="instagram-icon" viewBox="0 0 576 576"><path fill="#fff" d="M292 176.1c35.4 0 39.6.1 53.6.8s19.9 2.7 24.6 4.6a43.9 43.9 0 0 1 25.2 25.2c1.8 4.7 4 11.7 4.6 24.6s.8 18.2.8 53.6-.1 39.6-.8 53.6-2.7 19.9-4.6 24.6a43.9 43.9 0 0 1-25.2 25.2c-4.7 1.8-11.7 4-24.6 4.6s-18.2.8-53.6.8-39.6-.1-53.6-.8-19.9-2.7-24.6-4.6a43.9 43.9 0 0 1-25.1-25.3c-1.8-4.7-4-11.7-4.6-24.6s-.8-18.2-.8-53.6.1-39.6.8-53.6 2.7-19.9 4.6-24.6a43.9 43.9 0 0 1 25.2-25.2c4.7-1.8 11.7-4 24.6-4.6s18.2-.8 53.6-.8m0-23.9c-36 0-40.5.2-54.7.8s-23.7 2.9-32.2 6.2a67.8 67.8 0 0 0-38.8 38.9c-3.3 8.4-5.5 18.1-6.2 32.2s-.8 18.7-.8 54.7.2 40.5.8 54.7 2.9 23.7 6.2 32.2a67.8 67.8 0 0 0 38.8 38.8c8.4 3.3 18.1 5.5 32.2 6.2s18.7.8 54.7.8 40.5-.2 54.7-.8 23.7-2.9 32.2-6.2a67.8 67.8 0 0 0 38.8-38.8c3.3-8.4 5.5-18.1 6.2-32.2s.8-18.7.8-54.7-.2-40.5-.8-54.7-2.9-23.7-6.2-32.2a67.8 67.8 0 0 0-38.8-38.8c-8.4-3.3-18.1-5.5-32.2-6.2s-18.7-.8-54.7-.8z"/><path fill="#fff" d="M292 216.7a68.1 68.1 0 1 0 68.1 68.1 68.1 68.1 0 0 0-68.1-68.1zm0 112.3a44.2 44.2 0 1 1 44.2-44.2A44.2 44.2 0 0 1 292 329z"/><circle cx="362.8" cy="214.1" r="15.9" fill="#fff"/></symbol><symbol id="twitter-icon" viewBox="0 0 504 504"><path fill="#fff" d="M219.5 367.4c107.1 0 165.6-88.7 165.6-165.6 0-2.5-.1-5-.2-7.5a118.4 118.4 0 0 0 29-30.1 116.2 116.2 0 0 1-33.4 9.2 58.4 58.4 0 0 0 25.6-32.2 116.6 116.6 0 0 1-37 14.1 58.3 58.3 0 0 0-99.1 53.1 165.2 165.2 0 0 1-120-60.8 58.2 58.2 0 0 0 18 77.7 57.8 57.8 0 0 1-26.4-7.3v.7a58.2 58.2 0 0 0 46.7 57.1 58.1 58.1 0 0 1-26.3 1 58.3 58.3 0 0 0 54.4 40.4 116.8 116.8 0 0 1-72.3 24.9 118.5 118.5 0 0 1-13.9-.8 164.8 164.8 0 0 0 89.2 26.1"/></symbol></svg>