<svg xmlns="http://www.w3.org/2000/svg"><symbol id="facebook" viewBox="0 0 144 144"><defs><clipPath id="a"><rect width="64.9" height="64.85" x="41.1" y="38.1" fill="none" rx="32.4" ry="32.4"/></clipPath></defs><rect width="64.9" height="64.85" x="41.1" y="38.1" fill="#596ab2" rx="32.4" ry="32.4"/><g clip-path="url(#a)"><path fill="#4b5997" d="M92.8 40.9V51h-7s-4.4 0-4.4 4.4v8.2h11l-1.5 11.7h-9.8v29.2H69.6V75.1H59.5V63.2h10c-.3-16.3 1.3-25.3 23.3-22.3z"/><path fill="#fff" d="M95 40.9V51h-7s-4.4 0-4.4 4.4v8.2h11l-1.5 11.7h-9.8v29.2H71.8V75.1H61.7V63.2h10C71.4 46.9 73 37.9 95 40.9z"/></g></symbol><symbol id="intragram" viewBox="0 0 144 144"><rect width="61" height="61" x="44.8" y="43.3" fill="#596ab2" rx="30.5" ry="30.5"/><path fill="#596ab2" d="M96.9 52.2a30.5 30.5 0 1 0 8.9 21.6 30.4 30.4 0 0 0-8.9-21.6zm-1.1 17.1H85.1l-.8-1.3h11.5zM55.5 68h13.3l-.8 1.3H55.5z"/><path fill="#4b5997" d="M95.8 58.4a6 6 0 0 0-5.9-5.9H60.4a5.9 5.9 0 0 0-5.9 5.9v28.9a5.9 5.9 0 0 0 5.9 5.9h29.5l1.6-.2a5.9 5.9 0 0 0 4.3-5.7v-18H85.1l-.8-1.3h11.5zM55.5 68h13.3l-.8 1.3H55.5z"/><path fill="#fff" d="M94.5 54.6a5.7 5.7 0 0 0-3.5-1.1H60.1a5.8 5.8 0 0 0-4.6 5.7V68h13.3l-.8 1.3H55.5v17.9a5.9 5.9 0 0 0 5.8 5.8h30.2a5.8 5.8 0 0 0 5.3-5.8V59.3a5.8 5.8 0 0 0-2.3-4.7zm1.3 14.7H85.1l-.8-1.3h11.5z"/><path fill="#4b5997" d="M54.5 68h1v1.34h-1z"/><path fill="#596ab2" d="M84.3 68l.8 1.3H68l.8-1.3zm11.5 0H97v1.34h-1.2z"/><path fill="#fff" stroke="#596ab2" stroke-miterlimit="10" stroke-width="1.5" d="M86 73.5a9.5 9.5 0 1 1-18-4.1l.8-1.3a9.4 9.4 0 0 1 15.4 0l.8 1.3a9.5 9.5 0 0 1 1 4.1z"/><circle cx="76.5" cy="73.5" r="6.3" fill="#596ab2"/><rect width="6.8" height="6.48" x="85.6" y="56.6" fill="#596ab2" rx="1.3" ry="1.3"/><path fill="#596ab2" d="M60.1 53.5h1.2v6.97h-1.2zm2 0h1.2v6.97h-1.2zm2.1 0h1.2v6.97h-1.2z"/></symbol><symbol id="twitter" viewBox="0 0 144 144"><rect width="61.9" height="61.92" x="46" y="45.5" fill="#596ab2" rx="31" ry="31"/><path fill="#4b5997" d="M78.4 71.5a8.9 8.9 0 0 1 15.2-8.1s3.6-.2 5.7-2.2c0 0 .4 1.9-3.7 4.9 0 0 1.1.3 5-1.2a14.5 14.5 0 0 1-4.4 4.6c1.3 19.2-19.9 35.3-39.4 23a18.7 18.7 0 0 0 13.1-4s-5.6.7-8.4-6.2a9.6 9.6 0 0 0 4.2-.1s-7.8-1.5-7.1-9a5.5 5.5 0 0 0 3.9.9s-6.3-2.8-2.8-11.9c0 0 7.5 9.8 18.7 9.3z"/><path fill="#fff" d="M79.9 72.3a8.9 8.9 0 0 1 15.2-8.1s3.6-.2 5.7-2.2c0 0 .4 1.9-3.7 4.9 0 0 1.1.3 5-1.2a14.5 14.5 0 0 1-4.4 4.6c1.3 19.2-19.9 35.3-39.4 23a18.7 18.7 0 0 0 13.1-4s-5.6.7-8.4-6.2a9.6 9.6 0 0 0 4.2-.1s-7.8-1.5-7.1-9a5.5 5.5 0 0 0 3.9.9s-6.4-2.9-2.9-12c0 0 7.6 9.8 18.8 9.4z"/></symbol></svg>