<?xml version="1.0" encoding="utf-8"?>
<!-- Generator: Adobe Illustrator 21.0.2, SVG Export Plug-In . SVG Version: 6.00 Build 0)  -->
<!DOCTYPE svg PUBLIC "-//W3C//DTD SVG 1.1//EN" "http://www.w3.org/Graphics/SVG/1.1/DTD/svg11.dtd">
<svg version="1.1" id="Layer_1" xmlns="http://www.w3.org/2000/svg" xmlns:xlink="http://www.w3.org/1999/xlink" x="0px" y="0px"
	 viewBox="0 0 374.4 280.8" style="enable-background:new 0 0 374.4 280.8;" xml:space="preserve">
<style type="text/css">
	.st0{fill:#596AB2;}
	.st1{fill:none;stroke:#596AB2;stroke-width:11.11;stroke-linecap:round;stroke-linejoin:round;}
	.st2{fill:none;stroke:#596AB2;stroke-width:7.78;stroke-miterlimit:10;}
</style>
<title>Artboard 1</title>
<path class="st0" d="M110.6,105.4c-2.4,75.9-33.2,89-61.9,92.8v-12.2C68.4,188,98.5,169.3,110.6,105.4z"/>
<path class="st0" d="M182.3,129C182.3,129,182.3,129.1,182.3,129c-3.6,5.6-11,7.2-16.5,3.7c-5.6-3.5-7.2-10.9-3.6-16.5
	c3.5-5.5,10.9-7.2,16.4-3.7C184.2,116.1,185.8,123.4,182.3,129z"/>
<path class="st0" d="M312.8,103.3v139.1c0,30.6-15.7,25.2-35.1,25.2H136.5c-0.5-2-7.5-22-7.7-23.3c-3.5-25.9,14.7-44.3,40.6-40.9
	c11.7,1.6,23.3,4.9,34.9,7.1c37.8,6.9,65.8-5.5,85.9-37.8c0.2-0.4,0.4-0.7,0.7-1c11-18.3,7.9-28.3-13.3-31.7c-0.3,0-0.6-0.1-0.9-0.2
	c-32.3-5.3-56.5-22.1-77.3-46.3c-8.5-9.8-18.9-19.4-30.4-25C158,63.3,146.2,61,134,61.1l48.8-24.2L241.8,67l41.9,21.4L312.8,103.3z"
	/>
<polyline class="st1" points="330.9,92.4 281.4,67.3 240.1,46.3 181.8,16.9 38,89.5 "/>
<path class="st2" d="M291.6,173.1c-0.5-0.1-1-0.3-1.5-0.4c-19.2-6.1-15.1-27.1-13.6-32.9c0.3-1,0.4-1.5,0.4-1.5"/>
</svg>
